<?xml version="1.0" encoding="UTF-8" standalone="no"?>
<svg
   xmlns:dc="http://purl.org/dc/elements/1.1/"
   xmlns:cc="http://creativecommons.org/ns#"
   xmlns:rdf="http://www.w3.org/1999/02/22-rdf-syntax-ns#"
   xmlns:svg="http://www.w3.org/2000/svg"
   xmlns="http://www.w3.org/2000/svg"
   xmlns:sodipodi="http://sodipodi.sourceforge.net/DTD/sodipodi-0.dtd"
   xmlns:inkscape="http://www.inkscape.org/namespaces/inkscape"
   version="1.1"
   x="0px"
   y="0px"
   viewBox="0 0 100 100"
   xml:space="preserve"
   id="svg8"
   sodipodi:docname="noun_1368249_cc.svg"
   width="100"
   height="100"
   inkscape:version="0.92.2 2405546, 2018-03-11"><metadata
     id="metadata14"><rdf:RDF><cc:Work
         rdf:about=""><dc:format>image/svg+xml</dc:format><dc:type
           rdf:resource="http://purl.org/dc/dcmitype/StillImage" /><dc:title></dc:title></cc:Work></rdf:RDF></metadata><defs
     id="defs12" /><sodipodi:namedview
     pagecolor="#ffffff"
     bordercolor="#666666"
     borderopacity="1"
     objecttolerance="10"
     gridtolerance="10"
     guidetolerance="10"
     inkscape:pageopacity="0"
     inkscape:pageshadow="2"
     inkscape:window-width="1588"
     inkscape:window-height="806"
     id="namedview10"
     showgrid="false"
     inkscape:zoom="2.6700352"
     inkscape:cx="-25.914641"
     inkscape:cy="31.158705"
     inkscape:window-x="162"
     inkscape:window-y="145"
     inkscape:window-maximized="0"
     inkscape:current-layer="svg8" /><path
     d="M 50,1.886 C 23.47,1.886 1.886,23.47 1.886,50 1.886,76.53 23.47,98.114 50,98.114 76.53,98.114 98.114,76.53 98.114,50 98.114,23.47 76.53,1.886 50,1.886 Z m 24.247,12.988 c 0.015,0.035 0.023,0.072 0.023,0.11 v 1.853 c 0,0.083 -0.036,0.161 -0.099,0.215 l -0.95,0.808 c -0.053,0.045 -0.118,0.067 -0.183,0.067 -0.066,0 -0.132,-0.023 -0.185,-0.069 L 70.667,15.957 68.659,13.998 67.54,12.542 66.488,11.061 C 65.168,9.578 64.956,9.209 64.922,9.063 64.802,8.862 64.043,8.052 63.383,7.391 63.368,7.375 63.354,7.358 63.342,7.339 L 62.099,5.313 59.695,4.015 c -0.007,-0.004 -0.012,-0.01 -0.018,-0.014 5.605,1.178 10.839,3.363 15.519,6.347 l -0.371,1.07 -0.573,1.527 c -0.017,0.044 -0.044,0.084 -0.08,0.115 l -0.508,0.436 z m -3.672,16.978 c -0.053,0.047 -0.12,0.071 -0.187,0.071 -0.044,0 -0.088,-0.01 -0.129,-0.031 L 68.326,30.9 64.891,30.953 C 64.763,30.95 64.643,30.866 64.612,30.737 l -0.377,-1.564 c -0.026,-0.111 0.016,-0.227 0.109,-0.294 l 2.158,-1.564 c 0.082,-0.059 0.19,-0.07 0.281,-0.029 l 1.564,0.701 c 0.019,0.008 0.036,0.018 0.052,0.031 l 1.24,0.917 c 0.045,0.033 0.078,0.077 0.097,0.129 l 0.917,2.481 c 0.04,0.108 0.009,0.23 -0.078,0.307 z M 60.302,13.05 c -0.059,0.088 -0.158,0.235 -1.881,0.641 -0.021,0.005 -0.043,0.007 -0.064,0.007 -0.068,0 -0.136,-0.025 -0.188,-0.072 -0.991,-0.884 -2.121,-1.853 -2.295,-1.946 -0.157,-0.035 -2.09,-0.946 -2.911,-1.335 -0.081,-0.038 -0.139,-0.113 -0.156,-0.201 -0.017,-0.088 0.009,-0.179 0.07,-0.245 l 1.092,-1.184 0.616,-2.331 -0.754,-1.19 h -4.454 c -0.156,0 -0.282,-0.126 -0.282,-0.282 v -0.95 c 0,-0.093 0.046,-0.181 0.124,-0.233 l 1.07,-0.726 c 1.23,0.007 2.447,0.07 3.654,0.17 L 55.7,3.49 c 0.056,0.01 0.109,0.037 0.149,0.078 0.772,0.774 1.655,1.644 1.769,1.731 0.054,0.036 0.151,0.126 0.437,0.392 0.355,0.332 1.017,0.949 1.237,1.059 0.397,0.199 2.421,2.092 2.823,2.47 0.075,0.071 0.106,0.179 0.079,0.279 l -0.475,1.758 c -0.021,0.081 -0.078,0.147 -0.154,0.182 -0.076,0.036 -0.164,0.035 -0.239,-10e-4 l -1.833,-0.864 c 0.975,2.226 0.897,2.342 0.809,2.476 z M 45.752,3.195 C 45.741,3.266 45.709,3.333 45.65,3.378 l -1.266,0.961 v 1.19 c 0,0.156 -0.126,0.282 -0.282,0.282 H 42.107 L 39.275,5.524 C 39.166,5.513 39.074,5.44 39.038,5.337 L 38.753,4.53 C 38.734,4.476 38.733,4.419 38.747,4.366 41.022,3.804 43.361,3.411 45.752,3.195 Z m 45.105,61.774 -0.58,-4.292 c -0.009,-0.07 0.007,-0.141 0.047,-0.198 l 2.033,-2.936 V 53.35 c 0,-0.039 0.008,-0.078 0.024,-0.113 l 2.083,-4.744 2.159,-4.393 c 0.243,1.933 0.383,3.9 0.383,5.9 0,7.611 -1.83,14.799 -5.055,21.165 z m -42.021,32.007 0.75,-1.773 v -5.39 l -1.479,-1.198 -3.066,-1.942 c -0.02,-0.013 -0.039,-0.028 -0.055,-0.045 l -2.54,-2.716 -1.985,-2.324 h -0.398 c -0.149,0 -0.272,-0.115 -0.282,-0.263 L 39.63,79.062 39.406,77.499 C 39.4,77.455 39.404,77.411 39.418,77.37 l 0.679,-2.037 c 0.026,-0.076 0.083,-0.138 0.157,-0.17 l 2.088,-0.894 -0.171,-1.194 c -0.004,-0.027 -0.004,-0.055 10e-4,-0.082 l 0.181,-1.191 -1.521,-1.583 -1.191,1.653 c -0.045,0.062 -0.112,0.103 -0.188,0.114 C 39.379,71.997 39.3,71.977 39.24,71.93 L 37.075,70.26 34.338,69.234 C 34.228,69.193 34.155,69.087 34.155,68.97 V 67.49 L 31.885,65.76 29.4,65.195 c -0.046,-0.01 -0.088,-0.032 -0.123,-0.063 L 28.383,64.35 24.889,62.772 h -2.832 c -0.04,0 -0.078,-0.008 -0.115,-0.024 L 18.818,61.36 16.252,59.961 C 16.167,59.914 16.111,59.827 16.105,59.73 L 15.879,55.881 14.888,54.56 13.52,51.856 c -0.013,-0.025 -0.022,-0.052 -0.026,-0.08 l -0.488,-2.883 -1.922,-1.19 -0.196,3.038 2.623,4.905 c 0.063,0.117 0.035,0.262 -0.066,0.348 -0.101,0.086 -0.249,0.09 -0.354,0.009 L 11.587,54.846 9.393,53.229 8.551,52.392 C 8.498,52.339 8.468,52.267 8.468,52.193 V 45.419 L 8.024,44.271 C 8.012,44.238 8.005,44.204 8.005,44.169 v -8.291 c 0,-0.049 0.013,-0.097 0.037,-0.14 l 0.926,-1.62 c 0.009,-0.017 1.38,-2.646 1.603,-3.205 0.224,-0.56 1.139,-3.647 1.148,-3.678 0.036,-0.12 0.146,-0.202 0.271,-0.202 h 0.875 v -4.462 c 0,-0.08 0.035,-0.157 0.095,-0.211 l 0.996,-0.886 0.992,-2.204 v -0.542 c 0.423,-0.473 0.857,-0.935 1.298,-1.391 l 0.87,-0.531 0.734,-1.049 C 23.195,10.735 29.708,6.951 36.937,4.856 l -0.046,0.673 3.733,1.268 2.88,-0.297 c 0.046,-0.005 0.095,0.002 0.139,0.021 l 1.684,0.712 1.033,-2.959 c 0.019,-0.055 0.054,-0.103 0.102,-0.137 l 1.056,-0.754 c 0.086,-0.061 0.197,-0.069 0.29,-0.023 0.093,0.046 0.154,0.14 0.156,0.245 l 0.07,2.52 0.843,0.291 2.765,-0.368 c 0.122,-0.015 0.232,0.044 0.287,0.148 0.055,0.105 0.039,0.232 -0.04,0.32 L 49.853,8.78 c -0.054,0.06 -0.13,0.093 -0.21,0.093 h -2.59 l 0.511,1.191 c 0.034,0.078 0.03,0.168 -0.01,0.243 -0.04,0.075 -0.112,0.128 -0.196,0.145 l -2.338,0.453 -1.897,0.512 -2.386,1.591 -1.217,2.503 0.128,1.85 h 1.094 c 0.052,0 0.103,0.014 0.147,0.041 l 3.847,2.338 c 0.052,0.032 0.093,0.08 0.115,0.136 l 0.603,1.509 c 0.015,0.036 0.021,0.075 0.02,0.114 l -0.07,2.195 1.38,1.08 0.918,-1.407 v -2.104 c 0,-0.094 0.046,-0.181 0.124,-0.234 l 2.446,-1.655 0.07,-1.969 v -1.272 c 0,-0.094 0.047,-0.182 0.126,-0.235 l 0.372,-0.248 0.411,-1.234 0.148,-1.702 c 0.009,-0.102 0.073,-0.192 0.168,-0.234 l 1.735,-0.763 c 0.089,-0.039 0.193,-0.03 0.274,0.026 l 2.64,1.819 c 0.059,0.041 0.1,0.103 0.115,0.172 l 0.576,2.662 1.325,0.695 1.976,-1.2 c 0.076,-0.046 0.169,-0.054 0.251,-0.021 0.082,0.033 0.144,0.102 0.168,0.187 l 0.954,3.45 3.691,2.657 c 0.027,0.019 0.05,0.043 0.069,0.071 l 1.584,2.338 c 0.067,0.099 0.065,0.231 -0.008,0.327 l -1.131,1.509 c -0.023,0.03 -0.051,0.055 -0.083,0.074 L 64.42,27.24 c -0.05,0.029 -0.109,0.042 -0.166,0.038 L 59.577,26.9 56.683,26.467 54.315,28.89 58.158,27.707 c 0.046,-0.013 0.095,-0.016 0.141,-0.006 l 1.434,0.302 c 0.153,0.032 0.25,0.181 0.218,0.333 l -0.412,1.988 3.218,1.859 c 0.1,0.058 0.155,0.171 0.138,0.285 -0.017,0.115 -0.102,0.207 -0.215,0.234 l -2.565,0.604 -2.522,1.042 c -0.072,0.029 -0.152,0.028 -0.223,-0.004 l -1.407,-0.633 -1.679,0.581 -0.138,1.926 c -0.01,0.148 -0.133,0.262 -0.282,0.262 h -3.885 l -1.577,1.506 -1.385,1.604 -0.951,2.342 -0.372,2.28 c -0.018,0.107 -0.095,0.195 -0.2,0.226 l -4.407,1.275 -0.983,1.965 -0.359,2.011 0.739,2.883 c 0.015,0.059 0.01,0.122 -0.013,0.179 l -0.754,1.81 c -0.037,0.088 -0.116,0.152 -0.209,0.169 -0.093,0.017 -0.19,-0.013 -0.256,-0.083 l -1.433,-1.509 c -0.023,-0.024 -0.041,-0.052 -0.055,-0.082 l -1.107,-2.554 -1.1,-0.989 -3.475,-0.579 -2.954,0.887 c -0.041,0.012 -0.084,0.015 -0.127,0.008 l -2.185,-0.364 -2.742,1.11 -0.78,0.755 v 3.124 l 0.292,3.357 2.48,2.466 1.601,-0.064 0.527,-0.989 c 0.01,-0.019 0.022,-0.036 0.036,-0.052 l 1.509,-1.735 c 0.04,-0.047 0.095,-0.079 0.156,-0.091 l 2.565,-0.528 c 0.096,-0.02 0.198,0.013 0.265,0.086 0.067,0.073 0.09,0.176 0.062,0.271 l -0.679,2.263 -1.51,3.438 3.75,0.273 c 0.029,0.002 0.057,0.009 0.084,0.019 l 1.508,0.604 c 0.103,0.041 0.172,0.139 0.177,0.249 l 0.145,3.179 2.381,1.633 1.659,-0.898 c 0.103,-0.055 0.228,-0.043 0.316,0.032 l 1.688,1.418 2.306,-2.306 c 0.04,-0.041 0.092,-0.067 0.148,-0.078 l 2.866,-0.528 c 0.085,-0.016 0.173,0.009 0.239,0.066 0.065,0.058 0.1,0.142 0.094,0.229 L 47.844,68.6 50.081,67.047 C 50.149,67 50.23,66.984 50.306,67 l 4.526,0.981 3.285,0.296 c 0.053,0.005 0.105,0.025 0.147,0.058 l 4.029,3.114 4.698,1.287 c 0.101,0.028 0.179,0.109 0.201,0.212 l 0.528,2.414 c 0.015,0.069 0.004,0.142 -0.032,0.203 l -1.033,1.763 h 3.656 l 4.078,0.075 c 0.076,10e-4 0.148,0.033 0.2,0.088 l 2.64,2.791 c 0.097,0.103 0.103,0.262 0.014,0.372 l -1.66,2.036 c -0.014,0.017 -0.03,0.032 -0.047,0.046 l -3.495,2.678 -2.159,4.094 c -0.027,0.05 -0.068,0.091 -0.118,0.118 l -3.998,2.112 c -0.03,0.016 -0.062,0.026 -0.096,0.031 l -2.825,0.362 -0.909,1.189 c -0.022,0.028 -0.049,0.052 -0.079,0.071 l -3.017,1.81 -2.217,1.183 -0.115,0.161 c -2.129,0.296 -4.299,0.461 -6.508,0.461 -0.39,0 -0.776,-0.02 -1.164,-0.03 z M 59.623,63.664 v 2.463 c 0,0.136 -0.097,0.252 -0.23,0.277 -0.018,0.003 -0.035,0.005 -0.052,0.005 -0.115,0 -0.22,-0.07 -0.263,-0.18 -0.39,-1.007 -0.587,-1.599 -0.587,-1.76 -0.011,-0.118 -0.222,-0.81 -0.412,-1.379 -0.038,-0.114 10e-4,-0.24 0.096,-0.313 0.096,-0.073 0.228,-0.077 0.328,-0.01 l 0.995,0.663 c 0.077,0.051 0.125,0.14 0.125,0.234 z m -3.237,-1.969 c -0.029,0.083 -0.095,0.148 -0.179,0.176 l -2.084,0.687 c -0.029,0.009 -0.059,0.014 -0.088,0.014 -0.103,0 -0.201,-0.056 -0.25,-0.152 L 53.17,61.236 c -0.037,-0.071 -0.042,-0.153 -0.014,-0.228 0.028,-0.075 0.085,-0.134 0.159,-0.164 l 1.231,-0.497 c 0.055,-0.021 0.112,-0.026 0.168,-0.014 l 0.947,0.213 c 0.071,0.016 0.133,0.058 0.173,0.119 l 0.521,0.782 c 0.048,0.073 0.06,0.165 0.031,0.248 z m -3.494,-1.443 c 0.018,0.104 -0.024,0.21 -0.109,0.274 -0.372,0.28 -1.037,0.757 -1.298,0.809 -0.238,0.048 -1.618,0.286 -1.618,0.286 l -1.99,0.004 c -0.114,0 -0.217,-0.068 -0.261,-0.174 l -0.237,-0.568 c -0.06,-0.143 0.008,-0.308 0.151,-0.368 l 2.132,-0.9 c 0.035,-0.015 0.072,-0.022 0.11,-0.022 h 1.468 c 0.028,0 0.057,0.004 0.084,0.013 l 1.374,0.426 c 0.101,0.031 0.176,0.116 0.194,0.22 z m -9.594,-0.096 c -0.005,0 -0.01,0 -0.015,0 -0.084,0 -0.164,-0.037 -0.217,-0.102 l -1.112,-1.344 -1.58,-1.097 -1.925,0.314 -2.245,0.609 C 36.1,58.564 35.986,58.53 35.915,58.446 L 35.11,57.499 c -0.099,-0.117 -0.087,-0.291 0.027,-0.393 l 1.326,-1.184 c 0.052,-0.046 0.118,-0.072 0.188,-0.072 h 2.463 c 0.027,0 0.054,0.004 0.08,0.012 l 3.541,1.042 c 0.022,0.007 0.044,0.016 0.064,0.028 l 2.239,1.327 c 0.002,10e-4 0.004,0.002 0.006,0.004 l 1.895,1.184 c 0.105,0.065 0.155,0.19 0.124,0.31 -0.031,0.119 -0.135,0.204 -0.258,0.211 z m 1.262,1.453 c -0.002,0.13 -0.094,0.242 -0.22,0.27 l -2.226,0.497 c -0.02,0.005 -0.041,0.007 -0.062,0.007 -0.059,0 -0.117,-0.018 -0.165,-0.054 l -1.374,-0.995 c -0.099,-0.072 -0.141,-0.199 -0.103,-0.315 0.037,-0.116 0.146,-0.195 0.268,-0.195 h 1.705 c 0.024,0 0.048,0.003 0.072,0.009 l 1.895,0.498 c 0.125,0.033 0.212,0.148 0.21,0.278 z"
     id="path2"
     style="fill:#0d47a1;fill-opacity:1"
     inkscape:connector-curvature="0" /><path
     style="fill:#7cb342;fill-opacity:1;stroke:none;stroke-width:0.529661;stroke-opacity:1"
     d="m 49.900789,93.114778 0.215825,-3.38946 -2.588768,-1.774735 c -1.423823,-0.976102 -3.714726,-2.991579 -5.090897,-4.478835 -2.068363,-2.235323 -2.516869,-3.080286 -2.587157,-4.874079 -0.08794,-2.244332 0.735972,-3.809533 2.005317,-3.809533 1.10258,0 0.897371,-2.861987 -0.281719,-3.929047 -0.921771,-0.834195 -1.053599,-0.839783 -1.488261,-0.06308 -0.423955,0.757564 -0.752721,0.698025 -2.961101,-0.536266 -1.366309,-0.763644 -2.484197,-1.709353 -2.484197,-2.101583 0,-0.948888 -2.797562,-2.90392 -4.155379,-2.90392 -0.593292,0 -1.228252,-0.241959 -1.411022,-0.537685 -0.525799,-0.850763 -3.936941,-2.109428 -5.75358,-2.122993 -0.911193,-0.0068 -2.848452,-0.662261 -4.305019,-1.456567 -2.372789,-1.293946 -2.675857,-1.664609 -2.913136,-3.562839 -0.145657,-1.165255 -0.801112,-3.122126 -1.456568,-4.348603 -0.655455,-1.226477 -1.191737,-2.707763 -1.191737,-3.291746 0,-0.90489 -1.363993,-2.15838 -2.348654,-2.15838 -0.704763,0 -0.213857,3.388339 0.770436,5.317711 1.253647,2.457353 1.06294,2.566416 -1.315481,0.752306 L 8.7959949,52.500204 8.4170243,44.414036 8.0380536,36.327868 9.6101628,33.179824 c 0.8646602,-1.731425 1.7301302,-3.8035 1.9232682,-4.604612 0.193137,-0.801112 0.584964,-1.456568 0.870728,-1.456568 0.285763,0 0.51957,-0.975382 0.51957,-2.167516 0,-1.365506 0.391963,-2.665818 1.059322,-3.514226 0.582627,-0.740691 1.059322,-1.628573 1.059322,-1.973072 0,-0.906386 5.688996,-6.100341 9.325878,-8.514365 1.713728,-1.1375079 4.96783,-2.8688761 7.231338,-3.847485 4.053008,-1.7522848 4.153532,-1.7673005 6.623406,-0.9893775 1.379366,0.4344513 3.614822,0.896987 4.967681,1.0278571 2.362973,0.2285845 2.477892,0.1746647 2.921058,-1.3705645 0.593262,-2.0685848 1.769622,-2.518171 1.769622,-0.6763216 0,1.2217054 0.207394,1.3682909 1.935905,1.3682909 1.902354,0 1.91929,0.018358 0.977231,1.059322 -0.546239,0.6035871 -1.631339,1.0593221 -2.522234,1.0593221 -1.167469,0 -1.486852,0.1998978 -1.260756,0.7890927 0.209157,0.5450551 -0.141879,0.8859798 -1.13507,1.1023748 -4.156551,0.905625 -6.469652,2.868045 -6.469652,5.488813 0,1.116125 0.366021,1.543506 1.750728,2.044223 2.521035,0.911618 4.075543,2.552678 4.075543,4.302462 0,1.872999 1.422129,3.280519 2.150902,2.128807 0.26465,-0.418239 0.484831,-1.291221 0.489292,-1.939961 0.0046,-0.667448 0.582977,-1.556193 1.332263,-2.047145 0.852464,-0.558555 1.326994,-1.364776 1.332128,-2.263269 0.01084,-1.897663 1.268477,-5.377267 2.137661,-5.914453 1.074236,-0.663914 3.492639,1.327762 3.863433,3.181732 0.337558,1.687791 1.243773,2.009557 3.005001,1.066977 0.869828,-0.465518 1.043891,-0.298362 1.341555,1.288307 0.246377,1.313306 0.912956,2.218876 2.383337,3.23785 1.122712,0.778041 2.396674,1.956996 2.831022,2.6199 0.727606,1.110465 0.69142,1.297643 -0.459989,2.379334 -1.175604,1.104424 -1.480106,1.143352 -5.134306,0.656382 -3.581452,-0.477275 -3.977585,-0.432678 -5.076325,0.571507 -1.581606,1.445497 -1.509615,2.058484 0.166897,1.421075 2.454007,-0.933011 3.937976,-0.662406 3.937976,0.7181 0,0.777515 0.494237,1.499157 1.334857,1.949043 0.734169,0.392916 1.151277,0.86123 0.926907,1.040698 -0.915297,0.732117 -4.446431,1.652695 -5.309389,1.384174 -1.104052,-0.34354 -1.936822,0.144825 -2.403411,1.409443 -0.246635,0.668465 -0.924937,0.926906 -2.432749,0.926906 -1.79594,0 -2.32045,0.290008 -3.719643,2.056633 -0.895885,1.131148 -1.815551,2.955069 -2.043699,4.053158 -0.376308,1.811178 -0.645109,2.063675 -2.89548,2.719852 -2.128859,0.620746 -2.550628,0.976722 -2.974009,2.51008 -0.27134,0.982713 -0.365999,2.916576 -0.210351,4.297471 0.3488,3.094551 -0.599094,3.080096 -2.356432,-0.03593 -0.638984,-1.133017 -1.592373,-2.235712 -2.118644,-2.450434 -1.441927,-0.588316 -9.21967,0.120824 -10.946897,0.99809 -1.469214,0.74622 -1.508894,0.872918 -1.30014,4.151337 0.168459,2.645588 0.489586,3.673559 1.475378,4.722886 1.657389,1.764211 2.871077,1.693528 4.253363,-0.247717 1.434763,-2.014936 4.002652,-2.313962 3.411389,-0.397246 -0.202193,0.655456 -0.694949,1.835355 -1.095014,2.622002 -0.978993,1.92499 -0.947783,2.011436 0.729176,2.019762 2.938404,0.01462 3.747338,0.524841 4.095067,2.583035 0.369255,2.185599 1.892335,3.466388 3.511149,2.952595 0.578386,-0.183575 1.392909,-0.05053 1.810052,0.295684 0.605603,0.502606 1.088981,0.351319 2.398696,-0.750737 1.814181,-1.52653 4.207282,-1.859671 4.207282,-0.585688 0,0.933697 0.61335,1.028602 1.421933,0.220016 0.41286,-0.41286 1.746482,-0.38294 4.740466,0.106361 3.218052,0.525916 4.682642,1.068612 6.436563,2.385032 1.248813,0.937304 3.193686,1.860148 4.321944,2.050768 1.591875,0.268946 2.124258,0.636991 2.376779,1.643109 0.178978,0.713093 0.07291,1.768342 -0.235704,2.344989 -0.535514,1.000615 -0.383538,1.048454 3.330884,1.048454 3.625218,0 3.995414,0.107945 5.4007,1.574745 l 1.508702,1.574746 -3.189153,3.059788 c -1.754036,1.682887 -3.357563,3.595292 -3.563395,4.249794 -0.450233,1.431642 -4.367606,3.841774 -6.244322,3.841774 -0.739852,0 -1.660588,0.380043 -2.046086,0.844539 -0.385498,0.464497 -1.904353,1.534826 -3.375235,2.378507 -2.136531,1.225487 -3.318457,1.534963 -5.877399,1.538935 l -3.203068,0.005 z"
     id="path821"
     inkscape:connector-curvature="0" /><path
     style="fill:#7cb342;fill-opacity:1;stroke:none;stroke-width:0.529661;stroke-opacity:1"
     d="m 91.384794,66.76425 c -0.79939,-4.590437 -0.757552,-6.397037 0.176751,-7.632296 0.427705,-0.565477 0.785227,-2.01543 0.794491,-3.222118 0.01108,-1.442547 0.742735,-3.710136 2.136253,-6.620762 l 2.119406,-4.426786 -0.216875,6.885593 c -0.223229,7.087285 -1.345357,12.495057 -3.439946,16.577834 l -0.969184,1.889134 z"
     id="path823"
     inkscape:connector-curvature="0" /><path
     style="fill:#7cb342;fill-opacity:1;stroke:none;stroke-width:0.529661;stroke-opacity:1"
     d="m 67.220856,30.962607 c -2.493778,-0.254188 -3.191972,-1.07656 -2.016631,-2.375298 1.15246,-1.273454 2.080815,-1.180928 3.622817,0.361073 1.246461,1.246462 1.736698,2.505413 0.902831,2.318513 -0.218485,-0.04897 -1.347543,-0.185901 -2.509017,-0.304288 z"
     id="path825"
     inkscape:connector-curvature="0" /><path
     style="fill:#7cb342;fill-opacity:1;stroke:none;stroke-width:0.529661;stroke-opacity:1"
     d="M 70.278224,15.08571 C 67.541647,12.344951 62.050812,5.3573803 62.377213,5.0309787 c 0.272691,-0.2726903 6.544555,2.1155725 9.1095,3.4688058 3.538419,1.8668255 3.520501,1.8441855 2.823495,3.5674665 -0.343703,0.84977 -0.5751,2.295595 -0.514215,3.212944 0.173013,2.606803 -0.772975,2.554503 -3.517769,-0.194485 z"
     id="path827"
     inkscape:connector-curvature="0" /><path
     style="fill:#7cb342;fill-opacity:1;stroke:none;stroke-width:0.529661;stroke-opacity:1"
     d="m 57.693532,12.839555 c -0.192583,-0.311607 -1.270881,-1.036279 -2.396218,-1.610382 -2.041109,-1.041296 -2.044141,-1.047685 -1.251317,-2.6369378 1.275615,-2.5570308 0.565595,-3.7193538 -2.272014,-3.7193538 -3.234046,0 -2.823869,-1.2672018 0.480361,-1.4840318 2.271644,-0.1490697 2.662762,0.032152 5.784868,2.680373 3.424566,2.9047726 4.745241,5.3564184 2.580496,4.7903254 -0.899043,-0.235105 -1.071021,-0.06524 -0.958324,0.946568 0.145684,1.307961 -1.321869,2.078662 -1.967852,1.033439 z"
     id="path831"
     inkscape:connector-curvature="0" /><path
     style="fill:#7cb342;fill-opacity:1;stroke:none;stroke-width:0.529661;stroke-opacity:1"
     d=""
     id="path833"
     inkscape:connector-curvature="0" /><path
     style="fill:#7cb342;fill-opacity:1;stroke:none;stroke-width:0.529661;stroke-opacity:1"
     d="m 39.183725,4.9404767 c -0.157064,-0.254136 0.603498,-0.6090341 1.69014,-0.7886622 2.894484,-0.4784751 3.299864,-0.4224277 3.299864,0.4562363 0,0.5869481 -0.614465,0.7944916 -2.352216,0.7944916 -1.293718,0 -2.480723,-0.2079296 -2.637788,-0.4620657 z"
     id="path835"
     inkscape:connector-curvature="0" /><path
     style="fill:#7cb342;fill-opacity:1;stroke:none;stroke-width:0.18726344;stroke-opacity:1"
     d="m 42.767733,59.548786 c -0.168008,-0.256413 -0.743686,-0.812595 -1.279284,-1.235961 -0.930862,-0.735805 -1.01539,-0.764249 -1.916414,-0.644883 -0.518429,0.06868 -1.503018,0.280093 -2.187974,0.469807 l -1.245375,0.344934 -0.523318,-0.546225 -0.523317,-0.546226 0.738744,-0.764362 0.738743,-0.764361 1.59174,0.0894 c 2.178548,0.122352 4.338769,0.87795 6.813231,2.383119 1.093483,0.665145 1.988151,1.262307 1.988151,1.327027 0,0.180945 -1.268632,0.349592 -2.646967,0.351879 -1.11843,0.0019 -1.272992,-0.04449 -1.54796,-0.464143 z"
     id="path837"
     inkscape:connector-curvature="0" /><path
     style="fill:#7cb342;fill-opacity:1;stroke:none;stroke-width:0.18726344;stroke-opacity:1"
     d="m 41.138774,61.653545 -0.823967,-0.608606 1.160102,-0.05548 c 1.199479,-0.05737 2.801179,0.28871 2.856842,0.617275 0.0289,0.170595 -1.345719,0.594025 -2.069397,0.637445 -0.164787,0.0099 -0.670399,-0.255896 -1.12358,-0.590629 z"
     id="path839"
     inkscape:connector-curvature="0" /><path
     style="fill:#7cb342;fill-opacity:1;stroke:none;stroke-width:0.18726344;stroke-opacity:1"
     d="m 47.664898,61.408831 c -0.07725,-0.07998 -0.140448,-0.288896 -0.140448,-0.464257 0,-0.44501 2.044781,-1.30824 3.055374,-1.289865 0.870935,0.01584 2.038337,0.379442 2.133344,0.664464 0.03387,0.101612 -0.289508,0.382074 -0.718619,0.623248 -0.609017,0.342287 -1.15419,0.457513 -2.484703,0.525163 -0.937476,0.04766 -1.767702,0.02123 -1.844948,-0.05875 z"
     id="path841"
     inkscape:connector-curvature="0" /><path
     style="fill:#7cb342;fill-opacity:1;stroke:none;stroke-width:0.18726344;stroke-opacity:1"
     d=""
     id="path843"
     inkscape:connector-curvature="0" /><path
     style="fill:#7cb342;fill-opacity:1;stroke:none;stroke-width:0.18726344;stroke-opacity:1"
     d="m 53.615321,61.896924 c -0.407057,-0.787162 -0.365156,-0.931531 0.358073,-1.233715 0.899042,-0.375644 1.735979,-0.173549 2.086229,0.503761 0.221924,0.429154 0.229871,0.558023 0.03868,0.627265 -1.050619,0.380491 -1.905217,0.65518 -2.038365,0.65518 -0.0874,0 -0.287478,-0.248621 -0.444615,-0.552491 z"
     id="path845"
     inkscape:connector-curvature="0" /><path
     style="fill:#7cb342;fill-opacity:1;stroke:none;stroke-width:0.18726344;stroke-opacity:1"
     d="m 59.067211,65.866973 c -0.363262,-0.707387 -0.945694,-2.841239 -0.812003,-2.974931 0.05993,-0.05993 0.366616,0.07451 0.681531,0.298749 0.550653,0.3921 0.572572,0.460986 0.572572,1.799432 0,0.765448 -0.03997,1.391724 -0.08882,1.391724 -0.04885,0 -0.207827,-0.231738 -0.353277,-0.514974 z"
     id="path847"
     inkscape:connector-curvature="0" /></svg>